<svg width="25" height="25" viewBox="0 0 25 25" fill="none" xmlns="http://www.w3.org/2000/svg">
<path d="M0.87207 3.64557C0.87207 2.00028 2.20584 0.666504 3.85114 0.666504H21.7263C23.3716 0.666504 24.7054 2.00028 24.7054 3.64557V21.5208C24.7054 23.1661 23.3716 24.4998 21.7263 24.4998H3.85114C2.20585 24.4998 0.87207 23.1661 0.87207 21.5208V3.64557Z" fill="#BCC0D1"/>
<path d="M14.0803 11.9378H10.2074M11.4984 14.5197H10.2074M15.3713 9.35585H10.2074M17.9533 9.22675V15.9398C17.9533 17.0243 17.9533 17.5666 17.7422 17.9808C17.5565 18.3452 17.2603 18.6414 16.8959 18.8271C16.4817 19.0381 15.9395 19.0381 14.8549 19.0381H10.7238C9.6393 19.0381 9.09704 19.0381 8.68281 18.8271C8.31844 18.6414 8.0222 18.3452 7.83655 17.9808C7.62549 17.5666 7.62549 17.0243 7.62549 15.9398V9.22675C7.62549 8.14223 7.62549 7.59997 7.83655 7.18574C8.0222 6.82137 8.31844 6.52513 8.68281 6.33948C9.09704 6.12842 9.6393 6.12842 10.7238 6.12842H14.8549C15.9395 6.12842 16.4817 6.12842 16.8959 6.33948C17.2603 6.52513 17.5565 6.82137 17.7422 7.18574C17.9533 7.59997 17.9533 8.14223 17.9533 9.22675Z" stroke="white" stroke-width="1.90667" stroke-linecap="round" stroke-linejoin="round"/>
</svg>
