<svg width="24" height="25" viewBox="0 0 24 25" fill="none" xmlns="http://www.w3.org/2000/svg">
<path fill-rule="evenodd" clip-rule="evenodd" d="M2.90004 0.496094C1.32051 0.496094 0.0400391 1.77656 0.0400391 3.35609V21.4694C0.0400391 23.049 1.32051 24.3294 2.90004 24.3294H21.0134C22.5929 24.3294 23.8734 23.049 23.8734 21.4694V3.35609C23.8734 1.77656 22.5929 0.496094 21.0134 0.496094H2.90004ZM8.80236 16.903C8.94219 16.9991 9.17377 17.0472 9.4971 17.0472C9.82044 17.0472 10.052 16.9991 10.1918 16.903C10.3317 16.8068 10.4191 16.6845 10.454 16.5359C10.489 16.3786 10.5064 16.2169 10.5064 16.0509V14.3337H12.1843C12.5513 14.3337 12.9228 14.2682 13.2985 14.1371C13.6743 13.9973 14.0195 13.7963 14.3341 13.5341C14.6574 13.2632 14.9152 12.9268 15.1075 12.5248C15.3085 12.1228 15.409 11.6553 15.409 11.1222C15.409 10.5804 15.3085 10.1085 15.1075 9.70648C14.9152 9.3045 14.6574 8.96805 14.3341 8.69714C14.0195 8.4175 13.6743 8.21213 13.2985 8.08105C12.9315 7.94997 12.5645 7.88443 12.1974 7.88443H9.51021C9.18688 7.88443 8.95529 7.93249 8.81547 8.02862C8.67565 8.12475 8.58826 8.25146 8.55331 8.40876C8.51835 8.55732 8.50087 8.71462 8.50087 8.88066V16.0378C8.50087 16.2038 8.51835 16.3655 8.55331 16.5228C8.58826 16.6801 8.67128 16.8068 8.80236 16.903ZM12.1974 12.3413H10.5064V9.8769H12.1843C12.429 9.8769 12.6431 9.92933 12.8266 10.0342C13.0189 10.1391 13.1674 10.2833 13.2723 10.4668C13.3772 10.6503 13.4296 10.8644 13.4296 11.1091C13.4296 11.3975 13.3641 11.6334 13.233 11.8169C13.1106 12.0004 12.9533 12.1359 12.7611 12.2233C12.5776 12.3019 12.3897 12.3413 12.1974 12.3413Z" fill="#FFB900"/>
</svg>
