<svg width="25" height="25" viewBox="0 0 25 25" fill="none" xmlns="http://www.w3.org/2000/svg">
<path fill-rule="evenodd" clip-rule="evenodd" d="M3.73207 0.496094C2.15254 0.496094 0.87207 1.77656 0.87207 3.35609V21.4694C0.87207 23.049 2.15254 24.3294 3.73207 24.3294H21.8454C23.4249 24.3294 24.7054 23.049 24.7054 21.4694V3.35609C24.7054 1.77656 23.4249 0.496094 21.8454 0.496094H3.73207ZM9.78872 16.9598C9.9198 17.0471 10.0989 17.0908 10.3262 17.0908C10.5708 17.0908 10.7587 17.0428 10.8898 16.9467C11.0296 16.8418 11.1301 16.7282 11.1913 16.6058C11.2525 16.4835 11.2874 16.4005 11.2962 16.3568L12.8036 11.4674L14.3111 16.3568C14.3286 16.4005 14.3635 16.4835 14.416 16.6058C14.4771 16.7194 14.5776 16.8287 14.7174 16.9335C14.8573 17.0384 15.0452 17.0908 15.2811 17.0908C15.5258 17.0908 15.7093 17.0471 15.8317 16.9598C15.9627 16.8724 16.0545 16.7762 16.1069 16.6714C16.1681 16.5578 16.2074 16.4748 16.2249 16.4223L18.6893 9.27828C18.7592 9.03359 18.7897 8.83697 18.781 8.6884C18.781 8.53111 18.7286 8.40002 18.6237 8.29515C18.5189 8.19029 18.3353 8.08979 18.0732 7.99367C17.8285 7.90628 17.6231 7.87132 17.4571 7.8888C17.2998 7.90628 17.1687 7.97619 17.0638 8.09853C16.9677 8.21213 16.8803 8.39128 16.8017 8.63598L15.1762 13.5123L13.7868 8.67529C13.7605 8.61413 13.7212 8.52674 13.6688 8.41313C13.6163 8.29952 13.5202 8.19466 13.3804 8.09853C13.2493 8.0024 13.0483 7.95434 12.7774 7.95434C12.5415 7.95434 12.3579 7.99803 12.2269 8.08542C12.0958 8.17281 11.9996 8.27331 11.9385 8.38691C11.886 8.50052 11.8467 8.60101 11.8205 8.6884L10.4441 13.4861L8.80559 8.62286C8.72694 8.37817 8.63518 8.19903 8.53032 8.08542C8.43419 7.97182 8.30747 7.91065 8.15018 7.9019C8.00161 7.89317 7.80499 7.92812 7.5603 8.00677C7.18453 8.12912 6.95732 8.28205 6.87867 8.46556C6.80002 8.64034 6.81749 8.91125 6.9311 9.27828L9.39546 16.4223C9.41295 16.466 9.4479 16.5447 9.50033 16.6583C9.5615 16.7719 9.65763 16.8724 9.78872 16.9598Z" fill="#2684FF"/>
</svg>
