<?xml version="1.0" encoding="iso-8859-1"?>
<!-- Uploaded to: SVG Repo, www.svgrepo.com, Generator: SVG Repo Mixer Tools -->
<svg version="1.1" id="Layer_1" xmlns="http://www.w3.org/2000/svg" xmlns:xlink="http://www.w3.org/1999/xlink" 
	 viewBox="0 0 512 512" xml:space="preserve">
<path style="fill:#2D527C;" d="M438.558,512H19.786c-8.214,0-14.876-6.66-14.876-14.876V256.916c0-8.216,6.661-14.876,14.876-14.876
	s14.876,6.66,14.876,14.876v225.332h389.021v-32.833c0-8.216,6.661-14.876,14.876-14.876c8.214,0,14.876,6.66,14.876,14.876v47.709
	C453.434,505.34,446.773,512,438.558,512z"/>
<g>
	<polygon style="fill:#CEE8FA;" points="19.786,177.122 19.786,172.332 175.581,14.876 175.581,177.122 	"/>
	<rect x="196.155" y="219.435" style="fill:#CEE8FA;" width="296.061" height="163.65"/>
</g>
<g>
	<path style="fill:#2D527C;" d="M492.216,204.559h-38.782V14.876C453.434,6.66,446.773,0,438.558,0H175.581
		c-0.18,0-0.359,0.021-0.537,0.027c-0.171,0.006-0.341,0.013-0.51,0.025c-0.641,0.046-1.279,0.118-1.904,0.244
		c-0.013,0.003-0.025,0.007-0.039,0.01c-0.62,0.126-1.224,0.306-1.821,0.51c-0.153,0.052-0.305,0.107-0.457,0.165
		c-0.589,0.223-1.169,0.472-1.727,0.769c-0.015,0.007-0.03,0.013-0.045,0.021c-0.571,0.306-1.114,0.663-1.642,1.044
		c-0.132,0.095-0.263,0.193-0.394,0.295c-0.522,0.403-1.029,0.829-1.499,1.303L9.21,161.868c-0.35,0.353-0.678,0.721-0.988,1.104
		c-0.207,0.254-0.388,0.521-0.576,0.784c-0.092,0.131-0.195,0.256-0.283,0.388c-0.213,0.323-0.403,0.656-0.588,0.991
		c-0.048,0.085-0.103,0.167-0.147,0.253c-0.181,0.344-0.339,0.695-0.491,1.047c-0.039,0.089-0.085,0.174-0.12,0.263
		c-0.138,0.338-0.253,0.68-0.364,1.025c-0.037,0.116-0.083,0.229-0.119,0.345c-0.094,0.315-0.165,0.634-0.238,0.954
		c-0.036,0.155-0.08,0.305-0.11,0.461c-0.057,0.292-0.091,0.586-0.131,0.881c-0.025,0.186-0.06,0.37-0.077,0.558
		c-0.027,0.286-0.031,0.573-0.043,0.86c-0.006,0.183-0.027,0.364-0.027,0.547v4.792c0,8.216,6.661,14.876,14.876,14.876H175.58
		c8.214,0,14.876-6.66,14.876-14.876V29.752h233.226v174.807H196.156c-8.214,0-14.876,6.66-14.876,14.876v163.644
		c0,8.216,6.661,14.876,14.876,14.876h296.059c8.215,0,14.876-6.66,14.876-14.876V219.435
		C507.092,211.219,500.43,204.559,492.216,204.559z M160.705,162.246H50.692l56.297-56.896l53.718-54.29v111.186H160.705z
		 M477.34,368.203H211.032V234.311H477.34V368.203z"/>
	<path style="fill:#2D527C;" d="M274.984,253.911c17.246,0,30.74,7.997,30.74,29.49v32.364c0,21.493-13.494,29.49-30.74,29.49
		h-22.116c-5.123,0-8.497-2.749-8.497-5.873v-79.598c0-3.124,3.374-5.873,8.497-5.873L274.984,253.911L274.984,253.911z
		 M263.863,270.906v57.356h11.121c6.998,0,11.248-3.999,11.248-12.496v-32.364c0-8.497-4.249-12.496-11.248-12.496H263.863z"/>
	<path style="fill:#2D527C;" d="M317.093,316.515v-33.114c0-21.493,13.37-29.49,30.615-29.49c17.244,0,30.74,7.997,30.74,29.49
		v33.114c0,21.493-13.495,29.49-30.74,29.49C330.464,346.005,317.093,338.008,317.093,316.515z M358.956,283.401
		c0-8.622-4.249-12.496-11.248-12.496c-6.999,0-11.121,3.874-11.121,12.496v33.114c0,8.622,4.122,12.496,11.121,12.496
		c6.999,0,11.248-3.874,11.248-12.496V283.401z"/>
	<path style="fill:#2D527C;" d="M420.683,270.906c-7.123,0-11.246,3.999-11.246,12.496v33.114c0,8.497,4.122,12.496,11.371,12.496
		c9.998,0,10.623-7.622,10.998-12.496c0.375-4.623,4.622-5.873,9.622-5.873c6.748,0,9.872,1.749,9.872,9.247
		c0,16.619-13.495,26.116-31.364,26.116c-16.369,0-29.99-7.997-29.99-29.49v-33.114c0-21.493,13.62-29.49,29.99-29.49
		c17.869,0,31.364,8.997,31.364,24.867c0,7.497-3.124,9.247-9.747,9.247c-5.248,0-9.497-1.375-9.747-5.873
		C431.681,278.903,431.306,270.906,420.683,270.906z"/>
</g>
</svg>