<svg width="25" height="25" viewBox="0 0 25 25" fill="none" xmlns="http://www.w3.org/2000/svg">
<g clip-path="url(#clip0_1834_2783)">
<path d="M21.8165 0.496094H15.5077C15.9283 0.496094 16.2087 0.776486 16.2087 1.19707C16.2087 1.61766 15.9283 1.89805 15.5077 1.89805H14.1057C13.6851 1.89805 13.4048 1.61766 13.4048 1.19707C13.4048 0.776486 13.6851 0.496094 14.1057 0.496094H3.59103C2.04887 0.496094 0.787109 1.75786 0.787109 3.30002V21.5255C0.787109 23.0677 2.04887 24.3294 3.59103 24.3294H21.8165C23.3587 24.3294 24.6204 23.0677 24.6204 21.5255V3.30002C24.6204 1.75786 23.3587 0.496094 21.8165 0.496094ZM9.89985 1.89805H11.3018C11.7224 1.89805 12.0028 2.17845 12.0028 2.59903C12.0028 3.01962 11.7224 3.30002 11.3018 3.30002H9.89985C9.47927 3.30002 9.19887 3.01962 9.19887 2.59903C9.19887 2.17845 9.47927 1.89805 9.89985 1.89805V1.89805ZM9.89985 4.70198H11.3018C11.7224 4.70198 12.0028 4.98237 12.0028 5.40296C12.0028 5.82354 11.7224 6.10394 11.3018 6.10394H9.89985C9.47927 6.10394 9.19887 5.82354 9.19887 5.40296C9.19887 4.98237 9.47927 4.70198 9.89985 4.70198ZM9.89985 7.5059H11.3018C11.7224 7.5059 12.0028 7.78629 12.0028 8.20688C12.0028 8.62747 11.7224 8.90786 11.3018 8.90786H9.89985C9.47927 8.90786 9.19887 8.62747 9.19887 8.20688C9.19887 7.78629 9.47927 7.5059 9.89985 7.5059ZM16.2087 14.5157C16.2087 16.0579 14.9469 17.3196 13.4048 17.3196H12.0028C10.4606 17.3196 9.19887 16.0579 9.19887 14.5157V10.3098H16.2087V14.5157ZM15.5077 7.5059H14.1057C13.6851 7.5059 13.4048 7.22551 13.4048 6.80492C13.4048 6.38433 13.6851 6.10394 14.1057 6.10394H15.5077C15.9283 6.10394 16.2087 6.38433 16.2087 6.80492C16.2087 7.22551 15.9283 7.5059 15.5077 7.5059ZM15.5077 4.70198H14.1057C13.6851 4.70198 13.4048 4.42158 13.4048 4.001C13.4048 3.58041 13.6851 3.30002 14.1057 3.30002H15.5077C15.9283 3.30002 16.2087 3.58041 16.2087 4.001C16.2087 4.42158 15.9283 4.70198 15.5077 4.70198Z" fill="#FF650F"/>
</g>
<defs>
<clipPath id="clip0_1834_2783">
<rect width="23.8333" height="23.8333" fill="white" transform="translate(0.786621 0.496094)"/>
</clipPath>
</defs>
</svg>
