<svg width="22" height="22" viewBox="0 0 22 22" fill="none" xmlns="http://www.w3.org/2000/svg">
<path d="M7.5 14.5L14.5 7.49998M8 3V1M14 19V21M3 8H1M19 14H21M3.91421 3.91421L2.5 2.5M18.0858 18.0857L19.5 19.4999M11 16.6568L8.87871 18.7781C7.31662 20.3402 4.78396 20.3402 3.22186 18.7781C1.65976 17.216 1.65976 14.6833 3.22186 13.1212L5.34318 10.9999M16.6569 10.9999L18.7782 8.87859C20.3403 7.31649 20.3403 4.78383 18.7782 3.22174C17.2161 1.65964 14.6835 1.65964 13.1214 3.22174L11 5.34306" stroke="#FF4747" stroke-width="2" stroke-linecap="round" stroke-linejoin="round"/>
</svg>
