<svg width="188" height="17" viewBox="0 0 188 17" fill="none" xmlns="http://www.w3.org/2000/svg">
<path d="M0.76 1.84H5.08C5.66667 1.84 6.24 1.9 6.8 2.02C7.36 2.14 7.86 2.34 8.3 2.62C8.74 2.88667 9.09333 3.24 9.36 3.68C9.64 4.12 9.78 4.66667 9.78 5.32C9.78 6.14667 9.55333 6.83333 9.1 7.38C8.66 7.91333 8.06 8.29333 7.3 8.52V8.56C7.75333 8.6 8.17333 8.72 8.56 8.92C8.96 9.10667 9.3 9.35333 9.58 9.66C9.87333 9.96667 10.1 10.3267 10.26 10.74C10.42 11.14 10.5 11.5733 10.5 12.04C10.5 12.8267 10.3333 13.4733 10 13.98C9.68 14.4867 9.25333 14.8933 8.72 15.2C8.2 15.4933 7.60667 15.7 6.94 15.82C6.28667 15.94 5.63333 16 4.98 16H0.76V1.84ZM2.44 7.84H4.76C5.16 7.84 5.54667 7.81333 5.92 7.76C6.30667 7.70667 6.65333 7.6 6.96 7.44C7.26667 7.26667 7.51333 7.03333 7.7 6.74C7.88667 6.43333 7.98 6.03333 7.98 5.54C7.98 5.1 7.89333 4.74667 7.72 4.48C7.54667 4.2 7.31333 3.98 7.02 3.82C6.74 3.66 6.41333 3.55333 6.04 3.5C5.68 3.43333 5.31333 3.4 4.94 3.4H2.44V7.84ZM2.44 14.44H5.28C5.69333 14.44 6.1 14.4 6.5 14.32C6.91333 14.2267 7.28 14.0867 7.6 13.9C7.93333 13.7 8.2 13.4467 8.4 13.14C8.6 12.82 8.7 12.4333 8.7 11.98C8.7 11.4867 8.6 11.0733 8.4 10.74C8.21333 10.4067 7.96 10.14 7.64 9.94C7.33333 9.74 6.97333 9.6 6.56 9.52C6.16 9.44 5.74667 9.4 5.32 9.4H2.44V14.44ZM13.2177 0.879999H14.7777V16H13.2177V0.879999ZM26.0423 13.78C26.0423 14.2067 26.0557 14.6067 26.0823 14.98C26.109 15.3533 26.1223 15.6933 26.1223 16H24.6423C24.6423 15.7467 24.6357 15.4933 24.6223 15.24C24.609 14.9867 24.6023 14.7267 24.6023 14.46H24.5623C24.4557 14.6867 24.3023 14.9067 24.1023 15.12C23.9157 15.3333 23.689 15.5267 23.4223 15.7C23.1557 15.86 22.8557 15.9867 22.5223 16.08C22.189 16.1867 21.829 16.24 21.4423 16.24C20.829 16.24 20.2957 16.1467 19.8423 15.96C19.4023 15.7733 19.0357 15.5133 18.7423 15.18C18.449 14.8467 18.229 14.4467 18.0823 13.98C17.949 13.5 17.8823 12.98 17.8823 12.42V6.64H19.4423V12.26C19.4423 13.0467 19.6157 13.6667 19.9623 14.12C20.309 14.5733 20.849 14.8 21.5823 14.8C22.089 14.8 22.5223 14.7133 22.8823 14.54C23.2557 14.3667 23.5557 14.12 23.7823 13.8C24.0223 13.48 24.1957 13.1 24.3023 12.66C24.4223 12.22 24.4823 11.7333 24.4823 11.2V6.64H26.0423V13.78ZM37.3556 14.3C36.7956 15.02 36.1823 15.5267 35.5156 15.82C34.849 16.1 34.0756 16.24 33.1956 16.24C32.4623 16.24 31.8023 16.1133 31.2156 15.86C30.629 15.5933 30.129 15.24 29.7156 14.8C29.3156 14.36 29.0023 13.84 28.7756 13.24C28.5623 12.64 28.4556 12 28.4556 11.32C28.4556 10.6 28.5756 9.94 28.8156 9.34C29.0556 8.72667 29.389 8.20667 29.8156 7.78C30.2423 7.34 30.749 7 31.3356 6.76C31.9223 6.52 32.5623 6.4 33.2556 6.4C33.909 6.4 34.509 6.51333 35.0556 6.74C35.6023 6.95333 36.069 7.27333 36.4556 7.7C36.8556 8.11333 37.1623 8.62667 37.3756 9.24C37.589 9.84 37.6956 10.5267 37.6956 11.3V11.8H30.1356C30.1623 12.2 30.2556 12.5867 30.4156 12.96C30.589 13.32 30.809 13.64 31.0756 13.92C31.3423 14.1867 31.6556 14.4 32.0156 14.56C32.3756 14.72 32.769 14.8 33.1956 14.8C33.8756 14.8 34.449 14.68 34.9156 14.44C35.3823 14.2 35.8023 13.8467 36.1756 13.38L37.3556 14.3ZM36.0156 10.48C35.989 9.68 35.729 9.04 35.2356 8.56C34.7423 8.08 34.0623 7.84 33.1956 7.84C32.329 7.84 31.629 8.08 31.0956 8.56C30.5623 9.04 30.2423 9.68 30.1356 10.48H36.0156ZM38.7489 1.84H40.6089L43.8289 13.6H43.8689L47.3489 1.84H49.2289L52.6889 13.6H52.7289L56.0089 1.84H57.7689L53.6089 16H51.7889L48.2889 4H48.2489L44.7289 16H42.8889L38.7489 1.84ZM58.5045 7.84C58.9845 7.34667 59.5512 6.98667 60.2045 6.76C60.8712 6.52 61.5445 6.4 62.2245 6.4C63.6112 6.4 64.6112 6.72667 65.2245 7.38C65.8379 8.03333 66.1445 9.02667 66.1445 10.36V14.38C66.1445 14.6467 66.1579 14.9267 66.1845 15.22C66.2112 15.5 66.2445 15.76 66.2845 16H64.7845C64.7312 15.7867 64.6979 15.5533 64.6845 15.3C64.6845 15.0333 64.6845 14.8 64.6845 14.6H64.6445C64.3379 15.08 63.9245 15.4733 63.4045 15.78C62.8979 16.0867 62.2845 16.24 61.5645 16.24C61.0845 16.24 60.6312 16.18 60.2045 16.06C59.7912 15.94 59.4245 15.7667 59.1045 15.54C58.7979 15.3 58.5512 15.0067 58.3645 14.66C58.1779 14.3133 58.0845 13.9133 58.0845 13.46C58.0845 12.6867 58.2845 12.08 58.6845 11.64C59.0845 11.2 59.5779 10.8733 60.1645 10.66C60.7645 10.4467 61.4045 10.3133 62.0845 10.26C62.7779 10.2067 63.4112 10.18 63.9845 10.18H64.5845V9.9C64.5845 9.22 64.3779 8.70667 63.9645 8.36C63.5645 8.01333 62.9979 7.84 62.2645 7.84C61.7579 7.84 61.2579 7.92667 60.7645 8.1C60.2845 8.26 59.8579 8.51333 59.4845 8.86L58.5045 7.84ZM63.0245 11.5C62.0245 11.5 61.2312 11.64 60.6445 11.92C60.0579 12.2 59.7645 12.66 59.7645 13.3C59.7645 13.8867 59.9579 14.3067 60.3445 14.56C60.7445 14.8 61.2379 14.92 61.8245 14.92C62.2779 14.92 62.6712 14.8467 63.0045 14.7C63.3512 14.54 63.6379 14.3333 63.8645 14.08C64.0912 13.8267 64.2645 13.5333 64.3845 13.2C64.5045 12.8533 64.5712 12.4867 64.5845 12.1V11.5H63.0245ZM73.2556 16H71.5356L67.7156 6.64H69.5356L72.4556 13.98H72.4956L75.2756 6.64H76.9556L73.2556 16ZM87.0041 14.3C86.4441 15.02 85.8307 15.5267 85.1641 15.82C84.4974 16.1 83.7241 16.24 82.8441 16.24C82.1107 16.24 81.4507 16.1133 80.8641 15.86C80.2774 15.5933 79.7774 15.24 79.3641 14.8C78.9641 14.36 78.6507 13.84 78.4241 13.24C78.2107 12.64 78.1041 12 78.1041 11.32C78.1041 10.6 78.2241 9.94 78.4641 9.34C78.7041 8.72667 79.0374 8.20667 79.4641 7.78C79.8907 7.34 80.3974 7 80.9841 6.76C81.5707 6.52 82.2107 6.4 82.9041 6.4C83.5574 6.4 84.1574 6.51333 84.7041 6.74C85.2507 6.95333 85.7174 7.27333 86.1041 7.7C86.5041 8.11333 86.8107 8.62667 87.0241 9.24C87.2374 9.84 87.3441 10.5267 87.3441 11.3V11.8H79.7841C79.8107 12.2 79.9041 12.5867 80.0641 12.96C80.2374 13.32 80.4574 13.64 80.7241 13.92C80.9907 14.1867 81.3041 14.4 81.6641 14.56C82.0241 14.72 82.4174 14.8 82.8441 14.8C83.5241 14.8 84.0974 14.68 84.5641 14.44C85.0307 14.2 85.4507 13.8467 85.8241 13.38L87.0041 14.3ZM85.6641 10.48C85.6374 9.68 85.3774 9.04 84.8841 8.56C84.3907 8.08 83.7107 7.84 82.8441 7.84C81.9774 7.84 81.2774 8.08 80.7441 8.56C80.2107 9.04 79.8907 9.68 79.7841 10.48H85.6641Z" fill="#344054"/>
<path d="M95.3438 1.84H100.784C101.25 1.84 101.744 1.89333 102.264 2C102.784 2.10667 103.297 2.28 103.804 2.52C104.324 2.74667 104.817 3.04667 105.284 3.42C105.764 3.79333 106.184 4.24667 106.544 4.78C106.904 5.3 107.19 5.90667 107.404 6.6C107.617 7.28 107.724 8.05333 107.724 8.92C107.724 9.78667 107.617 10.5667 107.404 11.26C107.19 11.94 106.904 12.5467 106.544 13.08C106.184 13.6 105.764 14.0467 105.284 14.42C104.817 14.7933 104.324 15.1 103.804 15.34C103.297 15.5667 102.784 15.7333 102.264 15.84C101.744 15.9467 101.25 16 100.784 16H95.3438V1.84ZM97.0238 14.44H100.224C101.037 14.44 101.79 14.3333 102.484 14.12C103.177 13.9067 103.777 13.58 104.284 13.14C104.79 12.6867 105.19 12.1133 105.484 11.42C105.777 10.7267 105.924 9.89333 105.924 8.92C105.924 7.94667 105.777 7.11333 105.484 6.42C105.19 5.72667 104.79 5.16 104.284 4.72C103.777 4.26667 103.177 3.93333 102.484 3.72C101.79 3.50667 101.037 3.4 100.224 3.4H97.0238V14.44ZM110.028 7.84C110.508 7.34667 111.075 6.98667 111.728 6.76C112.395 6.52 113.068 6.4 113.748 6.4C115.135 6.4 116.135 6.72667 116.748 7.38C117.361 8.03333 117.668 9.02667 117.668 10.36V14.38C117.668 14.6467 117.681 14.9267 117.708 15.22C117.735 15.5 117.768 15.76 117.808 16H116.308C116.255 15.7867 116.221 15.5533 116.208 15.3C116.208 15.0333 116.208 14.8 116.208 14.6H116.168C115.861 15.08 115.448 15.4733 114.928 15.78C114.421 16.0867 113.808 16.24 113.088 16.24C112.608 16.24 112.155 16.18 111.728 16.06C111.315 15.94 110.948 15.7667 110.628 15.54C110.321 15.3 110.075 15.0067 109.888 14.66C109.701 14.3133 109.608 13.9133 109.608 13.46C109.608 12.6867 109.808 12.08 110.208 11.64C110.608 11.2 111.101 10.8733 111.688 10.66C112.288 10.4467 112.928 10.3133 113.608 10.26C114.301 10.2067 114.935 10.18 115.508 10.18H116.108V9.9C116.108 9.22 115.901 8.70667 115.488 8.36C115.088 8.01333 114.521 7.84 113.788 7.84C113.281 7.84 112.781 7.92667 112.288 8.1C111.808 8.26 111.381 8.51333 111.008 8.86L110.028 7.84ZM114.548 11.5C113.548 11.5 112.755 11.64 112.168 11.92C111.581 12.2 111.288 12.66 111.288 13.3C111.288 13.8867 111.481 14.3067 111.868 14.56C112.268 14.8 112.761 14.92 113.348 14.92C113.801 14.92 114.195 14.8467 114.528 14.7C114.875 14.54 115.161 14.3333 115.388 14.08C115.615 13.8267 115.788 13.5333 115.908 13.2C116.028 12.8533 116.095 12.4867 116.108 12.1V11.5H114.548ZM125.639 7.96H122.879V12.64C122.879 12.9467 122.886 13.2333 122.899 13.5C122.912 13.7533 122.966 13.98 123.059 14.18C123.152 14.3667 123.292 14.52 123.479 14.64C123.666 14.7467 123.932 14.8 124.279 14.8C124.506 14.8 124.739 14.7733 124.979 14.72C125.219 14.6667 125.446 14.5867 125.659 14.48L125.719 15.9C125.452 16.02 125.152 16.1067 124.819 16.16C124.499 16.2133 124.192 16.24 123.899 16.24C123.339 16.24 122.892 16.1667 122.559 16.02C122.226 15.8733 121.966 15.6667 121.779 15.4C121.592 15.1333 121.466 14.8067 121.399 14.42C121.346 14.02 121.319 13.58 121.319 13.1V7.96H119.279V6.64H121.319V3.98H122.879V6.64H125.639V7.96ZM127.43 7.84C127.91 7.34667 128.477 6.98667 129.13 6.76C129.797 6.52 130.47 6.4 131.15 6.4C132.537 6.4 133.537 6.72667 134.15 7.38C134.764 8.03333 135.07 9.02667 135.07 10.36V14.38C135.07 14.6467 135.084 14.9267 135.11 15.22C135.137 15.5 135.17 15.76 135.21 16H133.71C133.657 15.7867 133.624 15.5533 133.61 15.3C133.61 15.0333 133.61 14.8 133.61 14.6H133.57C133.264 15.08 132.85 15.4733 132.33 15.78C131.824 16.0867 131.21 16.24 130.49 16.24C130.01 16.24 129.557 16.18 129.13 16.06C128.717 15.94 128.35 15.7667 128.03 15.54C127.724 15.3 127.477 15.0067 127.29 14.66C127.104 14.3133 127.01 13.9133 127.01 13.46C127.01 12.6867 127.21 12.08 127.61 11.64C128.01 11.2 128.504 10.8733 129.09 10.66C129.69 10.4467 130.33 10.3133 131.01 10.26C131.704 10.2067 132.337 10.18 132.91 10.18H133.51V9.9C133.51 9.22 133.304 8.70667 132.89 8.36C132.49 8.01333 131.924 7.84 131.19 7.84C130.684 7.84 130.184 7.92667 129.69 8.1C129.21 8.26 128.784 8.51333 128.41 8.86L127.43 7.84ZM131.95 11.5C130.95 11.5 130.157 11.64 129.57 11.92C128.984 12.2 128.69 12.66 128.69 13.3C128.69 13.8867 128.884 14.3067 129.27 14.56C129.67 14.8 130.164 14.92 130.75 14.92C131.204 14.92 131.597 14.8467 131.93 14.7C132.277 14.54 132.564 14.3333 132.79 14.08C133.017 13.8267 133.19 13.5333 133.31 13.2C133.43 12.8533 133.497 12.4867 133.51 12.1V11.5H131.95ZM138.201 1.84H141.821C142.501 1.84 143.175 1.88 143.841 1.96C144.521 2.04 145.128 2.21333 145.661 2.48C146.195 2.74667 146.628 3.14 146.961 3.66C147.295 4.16667 147.461 4.86 147.461 5.74C147.461 6.78 147.148 7.62 146.521 8.26C145.895 8.9 145.028 9.30667 143.921 9.48L147.941 16H145.881L142.041 9.64H139.881V16H138.201V1.84ZM139.881 8.08H141.381C141.848 8.08 142.328 8.06667 142.821 8.04C143.328 8.01333 143.788 7.92667 144.201 7.78C144.628 7.63333 144.975 7.40667 145.241 7.1C145.521 6.78 145.661 6.32667 145.661 5.74C145.661 5.23333 145.561 4.82667 145.361 4.52C145.161 4.21333 144.895 3.98 144.561 3.82C144.241 3.64667 143.875 3.53333 143.461 3.48C143.061 3.42667 142.655 3.4 142.241 3.4H139.881V8.08ZM149.608 11.32C149.608 10.5867 149.735 9.92 149.988 9.32C150.241 8.72 150.588 8.20667 151.028 7.78C151.468 7.34 151.995 7 152.608 6.76C153.221 6.52 153.888 6.4 154.608 6.4C155.328 6.4 155.995 6.52 156.608 6.76C157.221 7 157.748 7.34 158.188 7.78C158.628 8.20667 158.975 8.72 159.228 9.32C159.481 9.92 159.608 10.5867 159.608 11.32C159.608 12.0533 159.481 12.72 159.228 13.32C158.975 13.92 158.628 14.44 158.188 14.88C157.748 15.3067 157.221 15.64 156.608 15.88C155.995 16.12 155.328 16.24 154.608 16.24C153.888 16.24 153.221 16.12 152.608 15.88C151.995 15.64 151.468 15.3067 151.028 14.88C150.588 14.44 150.241 13.92 149.988 13.32C149.735 12.72 149.608 12.0533 149.608 11.32ZM151.288 11.32C151.288 11.8133 151.361 12.2733 151.508 12.7C151.668 13.1133 151.895 13.48 152.188 13.8C152.481 14.1067 152.828 14.3533 153.228 14.54C153.641 14.7133 154.101 14.8 154.608 14.8C155.115 14.8 155.568 14.7133 155.968 14.54C156.381 14.3533 156.735 14.1067 157.028 13.8C157.321 13.48 157.541 13.1133 157.688 12.7C157.848 12.2733 157.928 11.8133 157.928 11.32C157.928 10.8267 157.848 10.3733 157.688 9.96C157.541 9.53333 157.321 9.16667 157.028 8.86C156.735 8.54 156.381 8.29333 155.968 8.12C155.568 7.93333 155.115 7.84 154.608 7.84C154.101 7.84 153.641 7.93333 153.228 8.12C152.828 8.29333 152.481 8.54 152.188 8.86C151.895 9.16667 151.668 9.53333 151.508 9.96C151.361 10.3733 151.288 10.8267 151.288 11.32ZM161.483 11.32C161.483 10.5867 161.61 9.92 161.863 9.32C162.116 8.72 162.463 8.20667 162.903 7.78C163.343 7.34 163.87 7 164.483 6.76C165.096 6.52 165.763 6.4 166.483 6.4C167.203 6.4 167.87 6.52 168.483 6.76C169.096 7 169.623 7.34 170.063 7.78C170.503 8.20667 170.85 8.72 171.103 9.32C171.356 9.92 171.483 10.5867 171.483 11.32C171.483 12.0533 171.356 12.72 171.103 13.32C170.85 13.92 170.503 14.44 170.063 14.88C169.623 15.3067 169.096 15.64 168.483 15.88C167.87 16.12 167.203 16.24 166.483 16.24C165.763 16.24 165.096 16.12 164.483 15.88C163.87 15.64 163.343 15.3067 162.903 14.88C162.463 14.44 162.116 13.92 161.863 13.32C161.61 12.72 161.483 12.0533 161.483 11.32ZM163.163 11.32C163.163 11.8133 163.236 12.2733 163.383 12.7C163.543 13.1133 163.77 13.48 164.063 13.8C164.356 14.1067 164.703 14.3533 165.103 14.54C165.516 14.7133 165.976 14.8 166.483 14.8C166.99 14.8 167.443 14.7133 167.843 14.54C168.256 14.3533 168.61 14.1067 168.903 13.8C169.196 13.48 169.416 13.1133 169.563 12.7C169.723 12.2733 169.803 11.8133 169.803 11.32C169.803 10.8267 169.723 10.3733 169.563 9.96C169.416 9.53333 169.196 9.16667 168.903 8.86C168.61 8.54 168.256 8.29333 167.843 8.12C167.443 7.93333 166.99 7.84 166.483 7.84C165.976 7.84 165.516 7.93333 165.103 8.12C164.703 8.29333 164.356 8.54 164.063 8.86C163.77 9.16667 163.543 9.53333 163.383 9.96C163.236 10.3733 163.163 10.8267 163.163 11.32ZM173.898 8.86C173.898 8.43333 173.885 8.03333 173.858 7.66C173.831 7.28667 173.818 6.94667 173.818 6.64H175.298C175.298 6.89333 175.305 7.14667 175.318 7.4C175.331 7.65333 175.338 7.91333 175.338 8.18H175.378C175.485 7.95333 175.631 7.73333 175.818 7.52C176.018 7.30667 176.251 7.12 176.518 6.96C176.785 6.78667 177.085 6.65333 177.418 6.56C177.751 6.45333 178.111 6.4 178.498 6.4C179.005 6.4 179.425 6.46667 179.758 6.6C180.105 6.72 180.391 6.87333 180.618 7.06C180.845 7.23333 181.018 7.42667 181.138 7.64C181.271 7.84 181.378 8.02 181.458 8.18C181.805 7.62 182.205 7.18667 182.658 6.88C183.111 6.56 183.698 6.4 184.418 6.4C185.085 6.4 185.645 6.49333 186.098 6.68C186.551 6.85333 186.918 7.11333 187.198 7.46C187.478 7.79333 187.678 8.20667 187.798 8.7C187.918 9.18 187.978 9.72 187.978 10.32V16H186.418V10.4C186.418 10.08 186.385 9.76667 186.318 9.46C186.251 9.15333 186.131 8.88 185.958 8.64C185.785 8.4 185.551 8.20667 185.258 8.06C184.965 7.91333 184.591 7.84 184.138 7.84C183.805 7.84 183.491 7.90667 183.198 8.04C182.905 8.17333 182.645 8.36 182.418 8.6C182.205 8.84 182.031 9.13333 181.898 9.48C181.778 9.81333 181.718 10.1867 181.718 10.6V16H180.158V10.7C180.158 9.66 180.018 8.92667 179.738 8.5C179.458 8.06 178.998 7.84 178.358 7.84C177.851 7.84 177.411 7.92667 177.038 8.1C176.678 8.27333 176.378 8.52 176.138 8.84C175.911 9.16 175.738 9.54 175.618 9.98C175.511 10.42 175.458 10.9067 175.458 11.44V16H173.898V8.86Z" fill="#1570EF"/>
</svg>
