<!DOCTYPE svg PUBLIC "-//W3C//DTD SVG 1.1//EN" "http://www.w3.org/Graphics/SVG/1.1/DTD/svg11.dtd">
<!-- Uploaded to: SVG Repo, www.svgrepo.com, Transformed by: SVG Repo Mixer Tools -->
<svg version="1.1" id="Layer_1" xmlns="http://www.w3.org/2000/svg" xmlns:xlink="http://www.w3.org/1999/xlink" viewBox="0 0 512 512" xml:space="preserve" width="800px" height="800px" fill="#000000">
<g id="SVGRepo_bgCarrier" stroke-width="0"/>
<g id="SVGRepo_tracerCarrier" stroke-linecap="round" stroke-linejoin="round"/>
<g id="SVGRepo_iconCarrier"> <path style="fill:#FFC61B;" d="M438.558,512H19.786c-8.214,0-14.876-6.66-14.876-14.876V256.916c0-8.216,6.661-14.876,14.876-14.876 s14.876,6.66,14.876,14.876v225.332h389.021v-32.833c0-8.216,6.661-14.876,14.876-14.876c8.214,0,14.876,6.66,14.876,14.876v47.709 C453.434,505.34,446.773,512,438.558,512z"/> <g> <polygon style="fill:#FEE187;" points="19.786,177.122 19.786,172.332 175.581,14.876 175.581,177.122 "/> <rect x="196.155" y="219.435" style="fill:#FEE187;" width="296.061" height="163.65"/> </g> <g> <path style="fill:#FFC61B;" d="M492.216,204.559h-38.782V14.876C453.434,6.66,446.773,0,438.558,0H175.581 c-0.18,0-0.359,0.021-0.538,0.027c-0.171,0.006-0.341,0.013-0.51,0.025c-0.641,0.046-1.278,0.118-1.903,0.244 c-0.015,0.003-0.03,0.007-0.045,0.012c-0.617,0.126-1.22,0.305-1.813,0.507c-0.155,0.054-0.308,0.109-0.46,0.167 c-0.589,0.223-1.166,0.472-1.723,0.768c-0.016,0.009-0.033,0.015-0.048,0.022c-0.57,0.306-1.113,0.663-1.641,1.043 c-0.134,0.095-0.263,0.193-0.394,0.295c-0.522,0.403-1.029,0.829-1.499,1.303L9.21,161.868c-0.35,0.353-0.678,0.721-0.988,1.104 c-0.207,0.254-0.388,0.521-0.576,0.784c-0.092,0.131-0.195,0.256-0.283,0.388c-0.213,0.323-0.403,0.656-0.588,0.991 c-0.048,0.085-0.103,0.167-0.147,0.253c-0.181,0.344-0.339,0.695-0.491,1.047c-0.039,0.089-0.085,0.174-0.12,0.263 c-0.138,0.338-0.253,0.68-0.364,1.025c-0.037,0.116-0.083,0.229-0.119,0.345c-0.094,0.315-0.165,0.634-0.238,0.954 c-0.036,0.155-0.079,0.305-0.11,0.461c-0.057,0.292-0.091,0.586-0.131,0.881c-0.025,0.186-0.06,0.37-0.077,0.558 c-0.027,0.286-0.031,0.573-0.043,0.86c-0.007,0.183-0.027,0.364-0.027,0.547v4.792c0,8.216,6.661,14.876,14.876,14.876H175.58 c8.214,0,14.876-6.66,14.876-14.876V29.752h233.226v174.807H196.156c-8.214,0-14.876,6.66-14.876,14.876v163.644 c0,8.216,6.661,14.876,14.876,14.876h296.059c8.215,0,14.876-6.66,14.876-14.876V219.435 C507.092,211.219,500.43,204.559,492.216,204.559z M160.705,162.246H50.692l56.297-56.896l53.718-54.29v111.186H160.705z M477.34,368.203H211.032V234.311H477.34V368.203z"/> <path style="fill:#FFC61B;" d="M248.835,259.784c0-3.124,2.874-5.873,7.248-5.873h25.866c16.494,0,29.489,7.747,29.489,28.74v0.625 c0,20.993-13.494,28.99-30.738,28.99h-12.371v26.991c0,3.999-4.873,5.998-9.747,5.998c-4.873,0-9.747-1.999-9.747-5.998V259.784z M268.328,270.906v26.366h12.371c6.996,0,11.246-3.999,11.246-12.496v-1.375c0-8.497-4.249-12.496-11.246-12.496L268.328,270.906 L268.328,270.906z"/> <path style="fill:#FFC61B;" d="M319.935,259.784c0-3.124,2.874-5.873,7.248-5.873h25.866c16.494,0,29.489,7.747,29.489,28.74v0.625 c0,20.993-13.494,28.99-30.738,28.99h-12.371v26.991c0,3.999-4.873,5.998-9.747,5.998s-9.747-1.999-9.747-5.998L319.935,259.784 L319.935,259.784z M339.428,270.906v26.366h12.371c6.996,0,11.246-3.999,11.246-12.496v-1.375c0-8.497-4.249-12.496-11.246-12.496 L339.428,270.906L339.428,270.906z"/> <path style="fill:#FFC61B;" d="M445.139,253.911c4.122,0,5.873,4.498,5.873,8.622c0,4.748-2.126,8.872-5.873,8.872h-17.244v67.852 c0,3.999-4.873,5.998-9.748,5.998c-4.872,0-9.747-1.999-9.747-5.998v-67.852h-17.244c-3.749,0-5.873-4.124-5.873-8.872 c0-4.124,1.751-8.622,5.873-8.622H445.139z"/> </g> </g>
</svg>